<?xml version="1.0" encoding="UTF-8"?>
<svg version="1.1" xmlns="http://www.w3.org/2000/svg" width="512" height="512">
<path d="M0 0 C0.66 -0.0103125 1.32 -0.020625 2 -0.03125 C4 0.5 4 0.5 8 4.5 C8 8.46 8 12.42 8 16.5 C60.8 16.5 113.6 16.5 168 16.5 C168 12.54 168 8.58 168 4.5 C172 0.5 172 0.5 174 -0.03125 C174.99 -0.01578125 174.99 -0.01578125 176 0 C176.66 -0.0103125 177.32 -0.020625 178 -0.03125 C180.9487376 0.75200842 182.10341544 2.13514715 184 4.5 C184.390625 7.515625 184.390625 7.515625 184.25 10.75 C184.21390625 11.82765625 184.1778125 12.9053125 184.140625 14.015625 C184.09421875 14.83546875 184.0478125 15.6553125 184 16.5 C185.73902588 16.4685791 185.73902588 16.4685791 187.51318359 16.43652344 C191.85550357 16.3635777 196.1977705 16.31800373 200.54052734 16.28027344 C202.41236509 16.26028137 204.28414138 16.23307832 206.15576172 16.19824219 C229.80301018 15.76943875 229.80301018 15.76943875 239.46875 24.796875 C245.60608606 31.62309572 248.30444725 38.88698596 248.2784729 48.05502319 C248.2842653 48.79518917 248.2900577 49.53535514 248.29602563 50.29795039 C248.31296952 52.76687495 248.31589726 55.23561194 248.31884766 57.70458984 C248.32814971 59.47885595 248.3383188 61.25311769 248.34928894 63.02737427 C248.37657171 67.83677369 248.39173328 72.64614384 248.40471697 77.45560026 C248.42035501 82.48448255 248.4471431 87.51330514 248.4727478 92.54214478 C248.51952363 102.06173451 248.55627356 111.58133548 248.58942068 121.10098135 C248.62765048 131.94012893 248.67705842 142.77921654 248.72740483 153.61831355 C248.83070691 175.91216474 248.91997295 198.20605391 249 220.5 C249.76666992 219.72285645 250.53333984 218.94571289 251.32324219 218.14501953 C254.17327287 215.25874575 257.02995259 212.3791311 259.88867188 209.50146484 C261.12421658 208.25587243 262.35795901 207.00848955 263.58984375 205.75927734 C265.36245697 203.96236217 267.1414854 202.17201902 268.921875 200.3828125 C269.46994812 199.82441681 270.01802124 199.26602112 270.58270264 198.69070435 C275.22108942 194.0509707 278.19903904 192.20365682 284.75 192 C291.32006084 192.14317324 294.41112084 193.9824044 299 198.5 C299.85980469 199.30824219 300.71960938 200.11648437 301.60546875 200.94921875 C311.56073836 210.55971712 311.56073836 210.55971712 312.43359375 216.40234375 C312.43488281 217.40394531 312.43617188 218.40554687 312.4375 219.4375 C312.46650391 220.93603516 312.46650391 220.93603516 312.49609375 222.46484375 C311.68948426 227.39976952 309.23669556 230.56150885 305.2858429 233.55969238 C304.24961288 234.19032593 303.21338287 234.82095947 302.14575195 235.47070312 C280.51908271 249.17755138 254.75245295 268.13657905 248.06173706 294.14762115 C241.27730865 329.0881695 244.44129228 367.16420506 246.95745116 402.45080054 C247.09683364 404.40662457 247.22742298 406.36306889 247.35783672 408.31951141 C247.51956402 410.68375494 247.70043236 413.04681012 247.90529346 415.40770721 C248.50846222 424.31481551 246.73998098 431.19007291 241.25 438.3125 C236.12973451 443.79480446 229.27144491 448.0749232 221.6751523 448.6874702 C218.78832497 448.76398514 215.90743991 448.77607535 213.01959229 448.76742554 C211.91079515 448.77195665 210.80199802 448.77648776 209.65960097 448.78115618 C205.94262135 448.79382067 202.22578788 448.79217846 198.50878906 448.79052734 C195.84435481 448.79651133 193.17993201 448.80325999 190.51550293 448.81088257 C184.02785939 448.82748029 177.5402522 448.83299157 171.05258921 448.83410732 C165.77725952 448.83505846 160.5019418 448.83917202 155.22661591 448.84550858 C140.26090763 448.86311827 125.295228 448.87234797 110.32950929 448.87084763 C109.11984457 448.87072776 109.11984457 448.87072776 107.88574219 448.87060547 C107.07831108 448.87052371 106.27087998 448.87044195 105.43898126 448.87035771 C92.35781931 448.86954507 79.27677257 448.88867791 66.19564393 448.9168822 C52.75502999 448.94563222 39.3144722 448.95942131 25.87382674 448.95769465 C18.33156833 448.95703144 10.78943068 448.9624933 3.24720001 448.98405075 C-3.17533645 449.00229055 -9.59769743 449.00658709 -16.02024862 448.9930319 C-19.29450135 448.98651597 -22.56834896 448.98852199 -25.8425827 449.0037384 C-29.3992401 449.01919461 -32.95501897 449.00987886 -36.51165771 448.99447632 C-37.53677452 449.00476344 -38.56189132 449.01505057 -39.61807227 449.02564943 C-48.73636989 448.93862348 -56.70652705 446.51878606 -63.46875 440.203125 C-69.35504233 433.65612638 -72.24652692 426.62802905 -72.25726891 417.79257584 C-72.26077498 417.14031324 -72.26428105 416.48805064 -72.26789337 415.81602252 C-72.27718789 413.63314241 -72.27228919 411.45053023 -72.26742554 409.26763916 C-72.27116279 407.68566221 -72.27576461 406.1036871 -72.28115618 404.52171493 C-72.29339244 400.17635163 -72.29312498 395.83106528 -72.29076743 391.48568869 C-72.29035942 386.79843044 -72.30139693 382.11119693 -72.31088257 377.4239502 C-72.32749715 368.24119991 -72.33299233 359.05847529 -72.33410732 349.87571123 C-72.33505761 342.41121415 -72.33916696 334.94672554 -72.34550858 327.48223114 C-72.36312251 306.31872145 -72.37234725 285.15523205 -72.37084763 263.99171498 C-72.37076772 262.85072834 -72.3706878 261.70974169 -72.37060547 260.53417969 C-72.37052371 259.39179973 -72.37044195 258.24941977 -72.37035771 257.07242224 C-72.36954484 238.5593926 -72.38868223 220.04644434 -72.4168822 201.53343824 C-72.44560965 182.52412559 -72.45942256 163.51485263 -72.45769465 144.50551772 C-72.45703068 133.83335799 -72.46252586 123.16128355 -72.48405075 112.48914337 C-72.50226073 103.40230263 -72.50661139 94.31558585 -72.4930319 85.22873476 C-72.48650126 80.59355751 -72.48638856 75.95861808 -72.5037384 71.32346344 C-72.51946993 67.07693021 -72.51660475 62.83082333 -72.49917014 58.58430049 C-72.49610041 57.05133573 -72.49973165 55.51833914 -72.51089029 53.98541191 C-72.58595879 42.93761612 -71.5314181 33.41305877 -63.703125 25.03125 C-56.20136136 18.28654508 -48.56271954 16.18361926 -38.6640625 16.3046875 C-37.34503433 16.30893234 -37.34503433 16.30893234 -35.99935913 16.31326294 C-33.20776406 16.32440288 -30.4164971 16.34949589 -27.625 16.375 C-25.72526507 16.3850378 -23.82552508 16.39416225 -21.92578125 16.40234375 C-17.28372893 16.42432194 -12.64191998 16.4588089 -8 16.5 C-8.04640625 15.68015625 -8.0928125 14.8603125 -8.140625 14.015625 C-8.19476563 12.39914063 -8.19476563 12.39914063 -8.25 10.75 C-8.29640625 9.68265625 -8.3428125 8.6153125 -8.390625 7.515625 C-7.76151229 2.65887491 -4.94717258 -0.07729957 0 0 Z " fill="#EFEFEF" transform="translate(136,31.5)"/>
<path d="M0 0 C0.66 -0.0103125 1.32 -0.020625 2 -0.03125 C4 0.5 4 0.5 8 4.5 C8 8.46 8 12.42 8 16.5 C60.8 16.5 113.6 16.5 168 16.5 C168 12.54 168 8.58 168 4.5 C172 0.5 172 0.5 174 -0.03125 C174.99 -0.01578125 174.99 -0.01578125 176 0 C176.66 -0.0103125 177.32 -0.020625 178 -0.03125 C180.9487376 0.75200842 182.10341544 2.13514715 184 4.5 C184.390625 7.515625 184.390625 7.515625 184.25 10.75 C184.21390625 11.82765625 184.1778125 12.9053125 184.140625 14.015625 C184.09421875 14.83546875 184.0478125 15.6553125 184 16.5 C185.73902588 16.4685791 185.73902588 16.4685791 187.51318359 16.43652344 C191.85550357 16.3635777 196.1977705 16.31800373 200.54052734 16.28027344 C202.41236509 16.26028137 204.28414138 16.23307832 206.15576172 16.19824219 C229.80301018 15.76943875 229.80301018 15.76943875 239.46875 24.796875 C245.60608606 31.62309572 248.30444725 38.88698596 248.2784729 48.05502319 C248.2842653 48.79518917 248.2900577 49.53535514 248.29602563 50.29795039 C248.31296952 52.76687495 248.31589726 55.23561194 248.31884766 57.70458984 C248.32814971 59.47885595 248.3383188 61.25311769 248.34928894 63.02737427 C248.37657171 67.83677369 248.39173328 72.64614384 248.40471697 77.45560026 C248.42035501 82.48448255 248.4471431 87.51330514 248.4727478 92.54214478 C248.51952363 102.06173451 248.55627356 111.58133548 248.58942068 121.10098135 C248.62765048 131.94012893 248.67705842 142.77921654 248.72740483 153.61831355 C248.83070691 175.91216474 248.91997295 198.20605391 249 220.5 C249.76666992 219.72285645 250.53333984 218.94571289 251.32324219 218.14501953 C254.17327287 215.25874575 257.02995259 212.3791311 259.88867188 209.50146484 C261.12421658 208.25587243 262.35795901 207.00848955 263.58984375 205.75927734 C265.36245697 203.96236217 267.1414854 202.17201902 268.921875 200.3828125 C269.46994812 199.82441681 270.01802124 199.26602112 270.58270264 198.69070435 C275.22108942 194.0509707 278.19903904 192.20365682 284.75 192 C291.32006084 192.14317324 294.41112084 193.9824044 299 198.5 C299.85980469 199.30824219 300.71960938 200.11648437 301.60546875 200.94921875 C311.56073836 210.55971712 311.56073836 210.55971712 312.43359375 216.40234375 C312.43488281 217.40394531 312.43617188 218.40554687 312.4375 219.4375 C312.46650391 220.93603516 312.46650391 220.93603516 312.49609375 222.46484375 C311.68948426 227.39976952 309.23669556 230.56150885 305.2858429 233.55969238 C304.24961288 234.19032593 303.21338287 234.82095947 302.14575195 235.47070312 C280.51908271 249.17755138 254.75245295 268.13657905 248.06173706 294.14762115 C241.27730865 329.0881695 244.44129228 367.16420506 246.95745116 402.45080054 C247.09683364 404.40662457 247.22742298 406.36306889 247.35783672 408.31951141 C247.51956402 410.68375494 247.70043236 413.04681012 247.90529346 415.40770721 C248.50846222 424.31481551 246.73998098 431.19007291 241.25 438.3125 C236.12973451 443.79480446 229.27144491 448.0749232 221.6751523 448.6874702 C218.78832497 448.76398514 215.90743991 448.77607535 213.01959229 448.76742554 C211.91079515 448.77195665 210.80199802 448.77648776 209.65960097 448.78115618 C205.94262135 448.79382067 202.22578788 448.79217846 198.50878906 448.79052734 C195.84435481 448.79651133 193.17993201 448.80325999 190.51550293 448.81088257 C184.02785939 448.82748029 177.5402522 448.83299157 171.05258921 448.83410732 C165.77725952 448.83505846 160.5019418 448.83917202 155.22661591 448.84550858 C140.26090763 448.86311827 125.295228 448.87234797 110.32950929 448.87084763 C109.11984457 448.87072776 109.11984457 448.87072776 107.88574219 448.87060547 C107.07831108 448.87052371 106.27087998 448.87044195 105.43898126 448.87035771 C92.35781931 448.86954507 79.27677257 448.88867791 66.19564393 448.9168822 C52.75502999 448.94563222 39.3144722 448.95942131 25.87382674 448.95769465 C18.33156833 448.95703144 10.78943068 448.9624933 3.24720001 448.98405075 C-3.17533645 449.00229055 -9.59769743 449.00658709 -16.02024862 448.9930319 C-19.29450135 448.98651597 -22.56834896 448.98852199 -25.8425827 449.0037384 C-29.3992401 449.01919461 -32.95501897 449.00987886 -36.51165771 448.99447632 C-37.53677452 449.00476344 -38.56189132 449.01505057 -39.61807227 449.02564943 C-48.73636989 448.93862348 -56.70652705 446.51878606 -63.46875 440.203125 C-69.35504233 433.65612638 -72.24652692 426.62802905 -72.25726891 417.79257584 C-72.26077498 417.14031324 -72.26428105 416.48805064 -72.26789337 415.81602252 C-72.27718789 413.63314241 -72.27228919 411.45053023 -72.26742554 409.26763916 C-72.27116279 407.68566221 -72.27576461 406.1036871 -72.28115618 404.52171493 C-72.29339244 400.17635163 -72.29312498 395.83106528 -72.29076743 391.48568869 C-72.29035942 386.79843044 -72.30139693 382.11119693 -72.31088257 377.4239502 C-72.32749715 368.24119991 -72.33299233 359.05847529 -72.33410732 349.87571123 C-72.33505761 342.41121415 -72.33916696 334.94672554 -72.34550858 327.48223114 C-72.36312251 306.31872145 -72.37234725 285.15523205 -72.37084763 263.99171498 C-72.37076772 262.85072834 -72.3706878 261.70974169 -72.37060547 260.53417969 C-72.37052371 259.39179973 -72.37044195 258.24941977 -72.37035771 257.07242224 C-72.36954484 238.5593926 -72.38868223 220.04644434 -72.4168822 201.53343824 C-72.44560965 182.52412559 -72.45942256 163.51485263 -72.45769465 144.50551772 C-72.45703068 133.83335799 -72.46252586 123.16128355 -72.48405075 112.48914337 C-72.50226073 103.40230263 -72.50661139 94.31558585 -72.4930319 85.22873476 C-72.48650126 80.59355751 -72.48638856 75.95861808 -72.5037384 71.32346344 C-72.51946993 67.07693021 -72.51660475 62.83082333 -72.49917014 58.58430049 C-72.49610041 57.05133573 -72.49973165 55.51833914 -72.51089029 53.98541191 C-72.58595879 42.93761612 -71.5314181 33.41305877 -63.703125 25.03125 C-56.20136136 18.28654508 -48.56271954 16.18361926 -38.6640625 16.3046875 C-37.34503433 16.30893234 -37.34503433 16.30893234 -35.99935913 16.31326294 C-33.20776406 16.32440288 -30.4164971 16.34949589 -27.625 16.375 C-25.72526507 16.3850378 -23.82552508 16.39416225 -21.92578125 16.40234375 C-17.28372893 16.42432194 -12.64191998 16.4588089 -8 16.5 C-8.04640625 15.68015625 -8.0928125 14.8603125 -8.140625 14.015625 C-8.19476563 12.39914063 -8.19476563 12.39914063 -8.25 10.75 C-8.29640625 9.68265625 -8.3428125 8.6153125 -8.390625 7.515625 C-7.76151229 2.65887491 -4.94717258 -0.07729957 0 0 Z M-38.95251656 51.54373169 C-41.51122212 56.32234146 -40.67141005 62.33188979 -40.62145996 67.62072754 C-40.62578871 69.09404086 -40.63230447 70.5673491 -40.64082003 72.04064417 C-40.65783619 76.0902726 -40.64361354 80.13928412 -40.62430525 84.18888021 C-40.60889781 88.5556881 -40.62227504 92.92241944 -40.63204956 97.28923035 C-40.64658885 105.84420377 -40.63432931 114.39894017 -40.61293632 122.95389116 C-40.58894568 132.91253707 -40.5906395 142.87112845 -40.59324223 152.82979685 C-40.59693393 170.5963787 -40.57609374 188.36284875 -40.54199219 206.12939453 C-40.50889987 223.37649359 -40.49473372 240.6234753 -40.50097656 257.87060547 C-40.5077381 276.6431372 -40.50528705 295.41561974 -40.48561716 314.18814421 C-40.48457768 315.18051261 -40.48353819 316.172881 -40.4824672 317.19532117 C-40.48037628 319.1885452 -40.4782653 321.1817692 -40.47613403 323.17499319 C-40.46923367 330.11974346 -40.46856992 337.06447859 -40.47001648 344.00923157 C-40.47145507 352.47042176 -40.46178567 360.93151617 -40.43807012 369.39267457 C-40.42619678 373.71123634 -40.41909383 378.02966447 -40.42490768 382.34824181 C-40.43007017 386.29968398 -40.42142454 390.25084353 -40.40163308 394.20223731 C-40.39688376 395.6335189 -40.39720547 397.06482793 -40.40304345 398.49610549 C-40.41020211 400.43851054 -40.39717811 402.38095882 -40.38311005 404.32332611 C-40.38153884 405.40319841 -40.37996764 406.48307071 -40.37834883 407.59566641 C-39.94498042 410.92234894 -38.97708168 412.81237631 -37 415.5 C-34.72143769 416.63928116 -33.47254549 416.62716902 -30.9416151 416.63142776 C-30.08728459 416.63526891 -29.23295407 416.63911005 -28.35273474 416.6430676 C-27.40868869 416.64220112 -26.46464264 416.64133463 -25.49198914 416.64044189 C-24.49333779 416.64341302 -23.49468644 416.64638414 -22.46577293 416.6494453 C-19.09786046 416.65816157 -15.72998342 416.65964301 -12.36206055 416.66113281 C-9.95611494 416.66575891 -7.55017008 416.67078328 -5.14422607 416.67617798 C1.40743432 416.68932391 7.95908732 416.69578762 14.51075768 416.70018864 C18.60039096 416.70294953 22.69002187 416.70718662 26.77965355 416.71169281 C38.09886813 416.72388702 49.41808082 416.73418587 60.73730183 416.7375679 C61.46203853 416.73778747 62.18677524 416.73800703 62.93347366 416.73823325 C64.0232068 416.73856067 64.0232068 416.73856067 65.13495475 416.7388947 C66.60714106 416.73933817 68.07932737 416.73978473 69.55151367 416.74023438 C70.28177174 416.7404558 71.0120298 416.74067723 71.7644169 416.74090537 C83.59791705 416.7448536 95.43135563 416.76230766 107.264832 416.7855939 C119.40916519 416.80929926 131.55346747 416.82176939 143.69782418 416.82293582 C150.51840993 416.82385307 157.33891547 416.82961782 164.15947914 416.84775543 C170.57391572 416.86475269 176.98824057 416.86641512 183.4026947 416.85761642 C185.75977167 416.85684346 188.11685668 416.86122271 190.47391319 416.87107468 C193.68647179 416.88371711 196.89848399 416.87795914 200.11103821 416.86749268 C201.04839209 416.87554908 201.98574598 416.88360548 202.95150453 416.89190602 C207.73487301 416.8553445 211.19612619 416.75629433 215 413.5 C216.2769491 409.66915269 216.13119309 406.07197145 216.11352539 402.08129883 C216.11374443 400.79317039 216.11374443 400.79317039 216.1139679 399.47901917 C216.11327079 396.6383309 216.10548783 393.79770807 216.09765625 390.95703125 C216.09579135 388.98833756 216.09436779 387.01964341 216.09336853 385.0509491 C216.08954901 379.86746949 216.07972352 374.68401786 216.06866455 369.50054932 C216.0584383 364.2119586 216.0538683 358.92336337 216.04882812 353.63476562 C216.03810077 343.25649812 216.0210311 332.87825138 216 322.5 C211.91177423 325.94327326 207.94315543 329.43237165 204.16625977 333.22021484 C203.2858754 334.10067474 202.40549103 334.98113464 201.49842834 335.88827515 C200.57211105 336.81975372 199.64579376 337.7512323 198.69140625 338.7109375 C197.71514014 339.68907267 196.73865006 340.66698435 195.76194763 341.64468384 C193.21327423 344.19714399 190.66762042 346.75259448 188.12261963 349.30871582 C185.51653382 351.92509914 182.90755379 354.53859303 180.29882812 357.15234375 C175.19640882 362.26543246 170.09718143 367.38168912 165 372.5 C160.33125463 368.60023279 155.90872191 364.54785356 151.62890625 360.2265625 C151.06171371 359.65795502 150.49452118 359.08934753 149.91014099 358.50350952 C148.12520087 356.71303764 146.34379744 354.91909516 144.5625 353.125 C143.34203061 351.89950677 142.12132947 350.67424428 140.90039062 349.44921875 C137.93091244 346.46880226 134.96459743 343.48527106 132 340.5 C136.03426104 335.19162606 140.02725996 331.93249498 145.84130859 328.75073242 C174.44061117 312.16048886 205.82681391 288.445497 216 255.5 C224.45481211 221.7280649 221.98656715 184.36292974 221.0625 149.875 C221.03254912 148.70496917 221.00259825 147.53493834 220.97173977 146.32945204 C220.32330889 121.28210537 219.25672276 96.25946856 217.57836914 71.25927734 C217.5221592 70.36734472 217.46594926 69.47541209 217.40803599 68.5564512 C217.24854965 66.07794909 217.07049281 63.60157014 216.88563538 61.12484741 C216.84115617 60.403741 216.79667696 59.68263459 216.7508499 58.93967646 C216.42614647 54.95460579 215.91471698 52.3322109 213 49.5 C209.76248322 48.42082774 207.42248229 48.38574399 204.01953125 48.40234375 C202.27446289 48.40717773 202.27446289 48.40717773 200.49414062 48.41210938 C198.67172852 48.42467773 198.67172852 48.42467773 196.8125 48.4375 C194.97268555 48.44426758 194.97268555 48.44426758 193.09570312 48.45117188 C190.06375332 48.46296935 187.03190094 48.47943079 184 48.5 C183.98541748 49.55912598 183.97083496 50.61825195 183.95581055 51.70947266 C183.89762673 55.65707342 183.82039593 59.60411571 183.73754883 63.55126953 C183.70439364 65.25625512 183.67633263 66.96134798 183.65356445 68.66650391 C183.61984432 71.12448634 183.56752206 73.58149406 183.51171875 76.0390625 C183.50532883 76.79555084 183.4989389 77.55203918 183.49235535 78.33145142 C183.36174559 83.08423772 182.56911232 86.36269812 180 90.5 C175.16053302 94.97650696 171.73580171 95.6247884 165.26371765 95.64717102 C164.57526742 95.65084771 163.88681719 95.6545244 163.17750484 95.6583125 C160.86531797 95.66934579 158.55317605 95.67319255 156.2409668 95.67700195 C154.58525449 95.68326681 152.92954359 95.68991363 151.27383423 95.69691467 C145.83230569 95.7179525 140.39077688 95.72831588 134.94921875 95.73828125 C133.07622577 95.74232872 131.20323293 95.74644564 129.33024025 95.75063133 C120.53204389 95.76968133 111.73385592 95.78391352 102.9356429 95.7922433 C92.77731367 95.80201948 82.61920211 95.82834973 72.4609496 95.86874419 C64.61032763 95.89889198 56.75976812 95.91371085 48.90908939 95.91702431 C44.21955987 95.91937608 39.53026297 95.92835314 34.84079552 95.95348549 C30.42895342 95.97674825 26.0174974 95.98100676 21.60560989 95.97072411 C19.98749445 95.97022822 18.36936011 95.97656436 16.75130272 95.99028015 C14.53948372 96.00797828 12.32905345 96.00090478 10.11723328 95.98774719 C8.26197793 95.99132972 8.26197793 95.99132972 6.36924267 95.99498463 C1.52037598 95.2826244 -1.60757137 93.08448775 -4.8125 89.4375 C-7.3748422 85.25683642 -7.21370549 81.07591532 -7.31640625 76.33203125 C-7.33718735 75.53721848 -7.35796844 74.7424057 -7.37937927 73.92350769 C-7.44472087 71.38659237 -7.50368808 68.84957427 -7.5625 66.3125 C-7.60569986 64.59178628 -7.64931463 62.87108292 -7.69335938 61.15039062 C-7.80038648 56.93369887 -7.90169724 52.7169038 -8 48.5 C-12.39548491 48.35463187 -16.79035087 48.26590052 -21.1875 48.1875 C-22.43337891 48.14560547 -23.67925781 48.10371094 -24.96289062 48.06054688 C-26.16494141 48.04443359 -27.36699219 48.02832031 -28.60546875 48.01171875 C-29.71043701 47.98553467 -30.81540527 47.95935059 -31.95385742 47.93237305 C-35.06403988 48.51193338 -36.78172023 49.22305133 -38.95251656 51.54373169 Z " fill="#F9B400" transform="translate(136,31.5)"/>
<path d="M0 0 C1.31902817 0.00424484 1.31902817 0.00424484 2.66470337 0.00857544 C5.45629844 0.01971538 8.2475654 0.04480839 11.0390625 0.0703125 C12.93879743 0.0803503 14.83853742 0.08947475 16.73828125 0.09765625 C21.38043455 0.11792766 26.02188391 0.15708779 30.6640625 0.1953125 C30.6640625 10.7553125 30.6640625 21.3153125 30.6640625 32.1953125 C17.4140625 32.4453125 17.4140625 32.4453125 13.25292969 32.49316406 C11.62339355 32.53908691 11.62339355 32.53908691 9.9609375 32.5859375 C8.29562988 32.6173584 8.29562988 32.6173584 6.59667969 32.64941406 C2.94254448 33.32962105 1.94615726 34.29992614 -0.3359375 37.1953125 C-0.93163478 40.04292003 -0.93163478 40.04292003 -0.83371544 43.25173187 C-0.84751183 45.1253363 -0.84751183 45.1253363 -0.86158693 47.03679132 C-0.85155654 48.42536842 -0.84115203 49.81394285 -0.83041382 51.20251465 C-0.83358944 52.67567448 -0.83851608 54.14883141 -0.84504664 55.62198019 C-0.85789668 59.67572365 -0.84572015 63.72906878 -0.82951808 67.78278613 C-0.81638095 72.15230781 -0.82625734 76.52178433 -0.83328247 80.89131165 C-0.8433753 89.45341062 -0.83207221 98.01535532 -0.81358187 106.57743514 C-0.79283354 116.54258806 -0.79295373 126.50770745 -0.79392703 136.47287792 C-0.79492876 154.25001764 -0.77659219 172.02708545 -0.74755859 189.80419922 C-0.71938279 207.06495473 -0.70521701 224.32564695 -0.70654297 241.58642578 C-0.70662288 242.6494707 -0.70670279 243.71251561 -0.70678513 244.80777401 C-0.70686584 245.86895791 -0.70694655 246.93014181 -0.7070297 248.0234828 C-0.70840866 267.65818867 -0.69663342 287.29286757 -0.67872327 306.92756471 C-0.67268482 313.8782803 -0.67056346 320.82899094 -0.66965866 327.77970886 C-0.66829573 336.24715256 -0.65938518 344.71455083 -0.64099304 353.18197525 C-0.63174576 357.50443321 -0.62567021 361.826833 -0.62818146 366.14930153 C-0.63036719 370.10314006 -0.62336152 374.05684977 -0.60888441 378.01066142 C-0.60524994 379.44397715 -0.60500474 380.87730613 -0.60841899 382.31062239 C-0.61253565 384.25338156 -0.60323668 386.19615549 -0.59320641 388.13889313 C-0.59179756 389.21968722 -0.59038871 390.30048131 -0.58893716 391.41402674 C-0.3340214 394.21637664 0.12528373 395.85856909 1.6640625 398.1953125 C3.94409075 399.33532663 5.19262721 399.3215404 7.72524071 399.32394695 C8.58018793 399.3271714 9.43513514 399.33039585 10.31598985 399.333718 C11.73308211 399.3313951 11.73308211 399.3313951 13.17880249 399.32902527 C14.67783786 399.3324236 14.67783786 399.3324236 16.20715678 399.33589059 C19.57740642 399.34225326 22.94761609 399.34139978 26.31787109 399.34057617 C28.72543897 399.34356626 31.13300636 399.34696843 33.54057312 399.35075378 C39.41446605 399.35869198 45.2883495 399.36180911 51.16224669 399.36236616 C55.93571744 399.36284084 60.70918487 399.36489319 65.48265457 399.36806679 C79.00827176 399.37687651 92.53388101 399.3814857 106.0595011 399.38073631 C106.78913331 399.38069636 107.51876553 399.3806564 108.27050781 399.38061523 C109.00102819 399.38057435 109.73154856 399.38053347 110.48420592 399.38049135 C122.32483337 399.38008486 134.16542903 399.38965448 146.00604729 399.4037536 C158.15602553 399.41810723 170.30598824 399.42502434 182.45597517 399.42415982 C189.280421 399.42382749 196.1048335 399.42659047 202.9292717 399.43733788 C209.34615213 399.44737843 215.76298028 399.44711788 222.17986488 399.43982124 C224.53897135 399.4387718 226.89808215 399.44115947 229.25718117 399.4471817 C232.46998992 399.45485386 235.6825521 399.45028853 238.89535522 399.44255066 C239.83562195 399.44769422 240.77588868 399.45283779 241.74464834 399.45813721 C242.60481105 399.45353842 243.46497376 399.44893962 244.35120201 399.44420147 C245.09285083 399.44441884 245.83449965 399.44463621 246.59862268 399.44486016 C249.03718098 399.1502321 250.60909306 398.53852625 252.6640625 397.1953125 C253.92020797 393.42687609 253.59435078 390.07952432 253.37744141 386.17675781 C252.96436675 377.69989037 252.70436387 369.22771242 252.53116798 360.74261856 C252.4197771 355.61895341 252.25388934 350.51035435 251.953125 345.39404297 C249.89068788 309.16555214 249.89068788 309.16555214 261.69433594 295.38867188 C268.89122073 287.49431799 277.01125353 280.44976055 285.6640625 274.1953125 C285.9940625 274.1953125 286.3240625 274.1953125 286.6640625 274.1953125 C286.75767109 291.493997 286.82812239 308.792602 286.87131119 326.09148216 C286.89190112 334.12438825 286.91995302 342.15713659 286.96582031 350.18994141 C287.00579787 357.19463258 287.03152124 364.19920946 287.04041648 371.20401156 C287.04561286 374.91007114 287.0577507 378.61580386 287.08698273 382.32175827 C287.11941776 386.46774293 287.12001495 390.61316608 287.11816406 394.75927734 C287.13254517 395.97632355 287.14692627 397.19336975 287.16174316 398.44729614 C287.11485283 408.17935917 285.14852888 416.40323233 278.3671875 423.6640625 C270.3048322 430.91278562 262.24922468 432.49438453 251.68365479 432.46273804 C250.57485765 432.46726915 249.46606052 432.47180026 248.32366347 432.47646868 C244.60668385 432.48913317 240.88985038 432.48749096 237.17285156 432.48583984 C234.50841731 432.49182383 231.84399451 432.49857249 229.17956543 432.50619507 C222.69192189 432.52279279 216.2043147 432.52830407 209.71665171 432.52941982 C204.44132202 432.53037096 199.1660043 432.53448452 193.89067841 432.54082108 C178.92497013 432.55843077 163.9592905 432.56766047 148.99357179 432.56616013 C147.78390707 432.56604026 147.78390707 432.56604026 146.54980469 432.56591797 C145.74237358 432.56583621 144.93494248 432.56575445 144.10304376 432.56567021 C131.02188181 432.56485757 117.94083507 432.58399041 104.85970643 432.6121947 C91.41909249 432.64094472 77.9785347 432.65473381 64.53788924 432.65300715 C56.99563083 432.65234394 49.45349318 432.6578058 41.91126251 432.67936325 C35.48872605 432.69760305 29.06636507 432.70189959 22.64381388 432.6883444 C19.36956115 432.68182847 16.09571354 432.68383449 12.8214798 432.6990509 C9.2648224 432.71450711 5.70904353 432.70519136 2.15240479 432.68978882 C1.12728798 432.70007594 0.10217118 432.71036307 -0.95400977 432.72096193 C-10.07230739 432.63393598 -18.04246455 430.21409856 -24.8046875 423.8984375 C-30.69097983 417.35143888 -33.58246442 410.32334155 -33.59320641 401.48788834 C-33.59671248 400.83562574 -33.60021855 400.18336314 -33.60383087 399.51133502 C-33.61312539 397.32845491 -33.60822669 395.14584273 -33.60336304 392.96295166 C-33.60710029 391.38097471 -33.61170211 389.7989996 -33.61709368 388.21702743 C-33.62932994 383.87166413 -33.62906248 379.52637778 -33.62670493 375.18100119 C-33.62629692 370.49374294 -33.63733443 365.80650943 -33.64682007 361.1192627 C-33.66343465 351.93651241 -33.66892983 342.75378779 -33.67004482 333.57102373 C-33.67099511 326.10652665 -33.67510446 318.64203804 -33.68144608 311.17754364 C-33.69906001 290.01403395 -33.70828475 268.85054455 -33.70678513 247.68702748 C-33.70670522 246.54604084 -33.7066253 245.40505419 -33.70654297 244.22949219 C-33.70646121 243.08711223 -33.70637945 241.94473227 -33.70629521 240.76773474 C-33.70548234 222.2547051 -33.72461973 203.74175684 -33.7528197 185.22875074 C-33.78154715 166.21943809 -33.79536006 147.21016513 -33.79363215 128.20083022 C-33.79296818 117.52867049 -33.79846336 106.85659605 -33.81998825 96.18445587 C-33.83819823 87.09761513 -33.84254889 78.01089835 -33.8289694 68.92404726 C-33.82243876 64.28887001 -33.82232606 59.65393058 -33.8396759 55.01877594 C-33.85540743 50.77224271 -33.85254225 46.52613583 -33.83510764 42.27961299 C-33.83203791 40.74664823 -33.83566915 39.21365164 -33.84682779 37.68072441 C-33.92189629 26.63292862 -32.8673556 17.10837127 -25.0390625 8.7265625 C-17.53729886 1.98185758 -9.89865704 -0.12106824 0 0 Z " fill="#0A4F77" transform="translate(97.3359375,47.8046875)"/>
<path d="M0 0 C3.24240347 1.45507152 5.48163464 3.52075488 8 6 C8.85980469 6.80824219 9.71960938 7.61648437 10.60546875 8.44921875 C20.56073836 18.05971712 20.56073836 18.05971712 21.43359375 23.90234375 C21.43488281 24.90394531 21.43617188 25.90554687 21.4375 26.9375 C21.45683594 27.93652344 21.47617187 28.93554688 21.49609375 29.96484375 C20.46339458 36.28301111 15.65834909 40.63170682 11.25683594 44.98608398 C10.69364151 45.55117676 10.13044708 46.11626953 9.55018616 46.69848633 C7.69975537 48.55260069 5.84225744 50.39944866 3.984375 52.24609375 C2.68609703 53.5431779 1.3881904 54.84063381 0.09063721 56.13844299 C-2.62643264 58.85395186 -5.34681753 61.56607942 -8.06982422 64.27563477 C-11.54244383 67.73130784 -15.00848802 71.19348339 -18.47226334 74.65801907 C-21.15214807 77.33763041 -23.83464276 80.01461617 -26.51799774 82.69075203 C-27.79588275 83.96547685 -29.07318235 85.24078884 -30.34986115 86.51672173 C-32.14383938 88.30850555 -33.94108907 90.09694431 -35.73925781 91.88452148 C-36.255905 92.40162186 -36.77255219 92.91872223 -37.30485535 93.45149231 C-40.08519729 96.20819611 -42.93489575 98.83712489 -45.89849854 101.39651489 C-50.07386395 105.0171854 -53.98842375 108.85435495 -57.88476562 112.77124023 C-58.6272052 113.51353378 -59.36964478 114.25582733 -60.13458252 115.02061462 C-62.56085277 117.44757535 -64.98357275 119.87804682 -67.40625 122.30859375 C-69.09853577 124.00274677 -70.79104407 125.69667753 -72.48376465 127.39039612 C-76.91807358 131.82850599 -81.34936997 136.26961179 -85.7800293 140.71136475 C-90.30985792 145.25145978 -94.8425519 149.78869216 -99.375 154.32617188 C-108.25279427 163.2146607 -117.12750395 172.10622264 -126 181 C-127.09960012 180.06715087 -128.19779758 179.13264824 -129.29542542 178.19747925 C-129.90713876 177.67726133 -130.5188521 177.15704342 -131.14910221 176.62106133 C-134.09133002 174.04418661 -136.8381843 171.2850861 -139.58984375 168.5078125 C-140.17923233 167.91700897 -140.76862091 167.32620544 -141.37586975 166.71749878 C-143.23213727 164.85569596 -145.08487085 162.99042255 -146.9375 161.125 C-148.20614672 159.85132989 -149.4750249 158.57789029 -150.74414062 157.3046875 C-153.83210554 154.20577957 -156.91690929 151.10375699 -160 148 C-154.80673876 141.7074504 -149.11261274 135.98449639 -143.33227539 130.23461914 C-142.25879447 129.16306054 -141.18554332 128.09127171 -140.11250305 127.01927185 C-137.81244396 124.72235909 -135.51084416 122.42700571 -133.20802498 120.13286018 C-129.5609129 116.49934297 -125.91768276 112.86194987 -122.27500916 109.22398376 C-113.88393816 100.84492452 -105.48785632 92.47089218 -97.09171295 84.0969162 C-89.39514289 76.42056597 -81.69965528 68.74313874 -74.00822252 61.06164068 C-70.39295937 57.45133619 -66.77527775 53.84347863 -63.15567601 50.23752415 C-60.89757831 47.98692861 -58.64159282 45.73422467 -56.38615227 43.48096657 C-55.3466543 42.44332772 -54.30629883 41.40654703 -53.26498413 40.37073135 C-48.1372784 35.26923513 -43.10530625 30.14724251 -38.41132545 24.64082813 C-34.62885168 20.24326741 -30.4101139 16.22546938 -26.3125 12.125 C-25.36643728 11.16676457 -24.42047317 10.20843178 -23.47460938 9.25 C-22.57162109 8.34507812 -21.66863281 7.44015625 -20.73828125 6.5078125 C-19.92399658 5.68941895 -19.10971191 4.87102539 -18.27075195 4.02783203 C-12.80177805 -0.85608338 -7.09226171 -1.00794417 0 0 Z " fill="#F9B300" transform="translate(427,224)"/>
<path d="M0 0 C5.51436625 -0.09233357 11.02600109 -0.17181582 16.54052734 -0.21972656 C18.41236509 -0.23971863 20.28414138 -0.26692168 22.15576172 -0.30175781 C45.80301018 -0.73056125 45.80301018 -0.73056125 55.46875 8.296875 C61.6064203 15.12346747 64.17929415 22.30450038 64.44911194 31.46031189 C64.47269333 32.19085598 64.49627472 32.92140007 64.5205707 33.67408186 C64.59618809 36.11188923 64.65792355 38.54982489 64.71899414 40.98803711 C64.76921245 42.74156758 64.81981544 44.49508706 64.87077332 46.24859619 C65.31955966 62.31825991 65.57052011 78.392847 65.7704401 94.46732235 C65.90761337 105.25060866 66.10253125 116.02613952 66.44848633 126.80493164 C66.75111889 136.23490561 66.9398619 145.65948579 66.99808401 155.09424788 C67.03236388 160.07411324 67.1173012 165.03955636 67.33876228 170.01490593 C68.14721127 188.94264569 68.2081132 204.22720436 54.86164063 218.80281478 C48.09909811 225.77801956 40.79310589 232.20017637 33 238 C32.67 238 32.34 238 32 238 C31.99668985 236.96686519 31.99337971 235.93373037 31.98996925 234.86928844 C31.90905773 209.75747627 31.81676771 184.64572569 31.71247292 159.53399944 C31.66230201 147.39027357 31.61585966 135.24655461 31.578125 123.1027832 C31.54523492 112.5211149 31.50542034 101.93949948 31.45720994 91.35788947 C31.43191523 85.75245209 31.41014277 80.14704993 31.39665604 74.54157066 C31.38386262 69.2696559 31.36183777 63.99786171 31.33261681 58.72601318 C31.3235197 56.78738009 31.31784586 54.84872757 31.31578636 52.91007423 C31.31247885 50.27041149 31.2970427 47.63109378 31.2784729 44.99150085 C31.28040763 44.21815877 31.28234237 43.44481669 31.28433573 42.64804 C31.24460797 38.89032581 31.13831013 37.2074652 29 34 C25.82490018 32.94163339 23.35717617 32.79756211 20.01953125 32.68359375 C18.97128174 32.64548584 17.92303223 32.60737793 16.84301758 32.56811523 C15.51294678 32.52501221 14.18287598 32.48190918 12.8125 32.4375 C8.584375 32.293125 4.35625 32.14875 0 32 C0 21.44 0 10.88 0 0 Z " fill="#0A5077" transform="translate(320,48)"/>
<path d="M0 0 C0.95290354 5.37155257 1.62462604 10.70093037 0 16 C-2.16755905 18.57906074 -4.81487974 20.47302259 -7.45996094 22.54248047 C-13.09277086 27.58130752 -15.902027 31.63797642 -16.63417435 39.24418831 C-16.83430263 44.594166 -16.7385394 49.90815963 -16.578125 55.2578125 C-16.56494 57.57849257 -16.55885899 59.89922275 -16.55950928 62.21994019 C-16.54434773 68.28616633 -16.44239638 74.34767343 -16.31866455 80.41253662 C-16.16008307 88.98650844 -16.12182214 97.56202719 -16.06903076 106.13717651 C-16.04062835 110.69557506 -15.97970407 115.25172289 -15.89239502 119.80935669 C-15.86339327 121.88348261 -15.83447822 123.95760975 -15.80566406 126.03173828 C-15.76816292 127.44216652 -15.76816292 127.44216652 -15.72990417 128.88108826 C-15.67914669 133.70556598 -15.68940984 137.16747538 -19 141 C-21.74720958 141.91573653 -23.35621252 142.12667017 -26.18422604 142.13142776 C-27.46963344 142.13718948 -27.46963344 142.13718948 -28.78100866 142.1430676 C-29.72282399 142.14220112 -30.66463932 142.14133463 -31.63499451 142.14044189 C-33.13531152 142.14489858 -33.13531152 142.14489858 -34.66593796 142.1494453 C-38.03307834 142.15814921 -41.40018323 142.15964196 -44.76733398 142.16113281 C-47.17504961 142.16575971 -49.58276449 142.17078419 -51.99047852 142.17617798 C-58.54201256 142.18931448 -65.0935392 142.19578562 -71.64508319 142.20018864 C-75.73454655 142.20295061 -79.82400755 142.20718783 -83.91346931 142.21169281 C-95.2327265 142.22388431 -106.55198178 142.23418456 -117.87124538 142.2375679 C-118.9579251 142.23789725 -118.9579251 142.23789725 -120.06655795 142.23823325 C-120.79275407 142.23845153 -121.51895019 142.23866981 -122.26715225 142.2388947 C-123.73872976 142.23933817 -125.21030726 142.23978473 -126.68188477 142.24023438 C-127.41183964 142.2404558 -128.14179451 142.24067723 -128.89386923 142.24090537 C-140.72798134 142.24485539 -152.56203196 142.26231613 -164.3961203 142.2855939 C-176.54161033 142.30929174 -188.68706948 142.321769 -200.83258301 142.32293582 C-207.6536809 142.32385335 -214.47469862 142.32962541 -221.29577446 142.34775543 C-227.70857964 142.36474016 -234.12127306 142.36642082 -240.53409576 142.35761642 C-242.89159362 142.35684289 -245.24909949 142.36123015 -247.60657692 142.37107468 C-250.81724281 142.38369896 -254.02736056 142.37796926 -257.23802185 142.36749268 C-258.17760646 142.37554908 -259.11719107 142.38360548 -260.08524793 142.39190602 C-266.34391076 142.343923 -266.34391076 142.343923 -269.54762363 140.66453171 C-272.2115633 137.61145804 -272.11267278 134.67580412 -272.0625 130.8125 C-272.05347656 129.91144531 -272.04445313 129.01039063 -272.03515625 128.08203125 C-272.02355469 127.39496094 -272.01195312 126.70789063 -272 126 C-270.79771381 125.99668985 -269.59542763 125.99337971 -268.35670853 125.98996925 C-239.82897012 125.9109838 -211.30127585 125.82177616 -182.77361007 125.71994839 C-179.26378719 125.70742924 -175.753964 125.6949965 -172.24414062 125.68261719 C-171.54538601 125.68015119 -170.8466314 125.6776852 -170.1267024 125.67514448 C-158.80652988 125.63540034 -147.48634736 125.60266033 -136.16614571 125.57250018 C-124.55408843 125.54140687 -112.94207551 125.50265813 -101.33006549 125.45720994 C-94.80630097 125.43192029 -88.28256665 125.41014628 -81.75876617 125.39665604 C-75.62258018 125.3838581 -69.48649764 125.36182819 -63.3503685 125.33261681 C-61.09447979 125.32352327 -58.8385744 125.31784668 -56.5826683 125.31578636 C-53.50984804 125.31247638 -50.43732337 125.29703311 -47.36456299 125.2784729 C-46.01631719 125.281375 -46.01631719 125.281375 -44.64083409 125.28433573 C-43.40621596 125.27313749 -43.40621596 125.27313749 -42.14665604 125.26171303 C-41.43733846 125.25943471 -40.72802088 125.25715638 -39.99720883 125.25480902 C-37.59856684 124.94878413 -36.02691927 124.31634638 -34 123 C-32.74385453 119.23156359 -33.06971172 115.88421182 -33.28662109 111.98144531 C-33.69969575 103.50457787 -33.95969863 95.03239992 -34.13289452 86.54730606 C-34.2442854 81.42364091 -34.41017316 76.31504185 -34.7109375 71.19873047 C-36.77337462 34.97023964 -36.77337462 34.97023964 -24.96972656 21.19335938 C-5.64880835 0 -5.64880835 0 0 0 Z " fill="#003259" transform="translate(384,322)"/>
<path d="M0 0 C52.8 0 105.6 0 160 0 C160 10.56 160 21.12 160 32 C107.2 32 54.4 32 0 32 C0 21.44 0 10.88 0 0 Z " fill="#0A5078" transform="translate(144,48)"/>
<path d="M0 0 C5.28 0 10.56 0 16 0 C16.09907944 7.27738499 16.17157001 14.55437492 16.21972656 21.83227539 C16.23980771 24.30662885 16.26707823 26.78093505 16.30175781 29.25512695 C16.35042778 32.81733888 16.37300454 36.37892181 16.390625 39.94140625 C16.41127014 41.04271378 16.43191528 42.1440213 16.45318604 43.27870178 C16.45507138 49.77204449 15.88812863 53.73004787 12 59 C7.18934047 63.45866005 3.7898764 64.12472664 -2.65362549 64.14044189 C-3.33320305 64.14341302 -4.0127806 64.14638414 -4.71295142 64.1494453 C-6.99517013 64.1581322 -9.27733638 64.15964054 -11.55957031 64.16113281 C-13.19395561 64.16576104 -14.82833982 64.1707857 -16.46272278 64.17617798 C-20.90708786 64.1893046 -25.35143784 64.19574759 -29.79581928 64.20018864 C-32.57270066 64.20311928 -35.34957791 64.20722409 -38.12645721 64.21169281 C-46.81520133 64.22536917 -55.503936 64.23503483 -64.19269013 64.2388947 C-74.22135933 64.24337427 -84.24989214 64.26091689 -94.27851987 64.2898953 C-102.03064543 64.3115176 -109.78273264 64.3215993 -117.53488803 64.32293582 C-122.16460075 64.32398356 -126.79418531 64.32988473 -131.42386627 64.34775543 C-135.78067405 64.36424533 -140.13725743 64.36638717 -144.49408531 64.35761642 C-146.09081053 64.35684651 -147.68754786 64.36118278 -149.28424263 64.37107468 C-151.46924076 64.38381438 -153.6534466 64.3779071 -155.83843994 64.36749268 C-157.67018957 64.36969252 -157.67018957 64.36969252 -159.53894424 64.3719368 C-165.03472516 63.78134153 -168.8167664 62.13178866 -172.875 58.25 C-175.22510291 54.65572496 -175.53139702 52.20745652 -176 48 C-174.74047799 47.99641747 -174.74047799 47.99641747 -173.45551109 47.99276257 C-153.02427142 47.93362675 -132.59314985 47.85808572 -112.1620388 47.76428509 C-102.28170208 47.7193194 -92.40140147 47.67990649 -82.52099609 47.65356445 C-73.90924102 47.63059066 -65.29760014 47.59719952 -56.68593562 47.55129844 C-52.1261104 47.5273579 -47.56639833 47.50863456 -43.00651169 47.50238609 C-38.71370316 47.49633901 -34.42118417 47.4763528 -30.12848282 47.44572449 C-28.55394247 47.43693823 -26.97936429 47.4332229 -25.40480042 47.43499184 C-23.25206686 47.43664656 -21.10021392 47.41992989 -18.94760132 47.39872742 C-17.74373968 47.39411845 -16.53987804 47.38950949 -15.29953575 47.38476086 C-10.32526701 46.80470837 -7.0762668 45.16353168 -3.6875 41.5 C-0.71027126 37.08929075 -0.79491336 32.97403123 -0.68359375 27.83203125 C-0.6524221 26.63981209 -0.6524221 26.63981209 -0.62062073 25.42350769 C-0.55527913 22.88659237 -0.49631192 20.34957427 -0.4375 17.8125 C-0.39430014 16.09178628 -0.35068537 14.37108292 -0.30664062 12.65039062 C-0.19883323 8.43369753 -0.0996458 4.21692549 0 0 Z " fill="#D2D2D1" transform="translate(320,80)"/>
<path d="M0 0 C11.42307692 0 11.42307692 0 15 3 C16.43727167 5.87454334 16.17278599 8.37958 16.22119141 11.59342957 C16.23834827 12.62142346 16.23834827 12.62142346 16.25585175 13.67018491 C16.29276714 15.97823744 16.32229603 18.28632105 16.3515625 20.59448242 C16.37582673 22.24529847 16.4003174 23.8961112 16.42501831 25.54692078 C16.64202625 40.65805706 16.7629399 55.77048876 16.85931396 70.88282299 C16.9255188 81.03836815 17.01990467 91.19199617 17.18652344 101.34643555 C17.33193931 110.20914508 17.4238308 119.07052397 17.45199776 127.93441087 C17.46861186 132.62177854 17.51066793 137.30560008 17.61651611 141.99187279 C18.31733489 174.31236838 18.31733489 174.31236838 10.57727051 182.97401142 C2.93057671 190 2.93057671 190 0 190 C0 127.3 0 64.6 0 0 Z " fill="#003259" transform="translate(352,96)"/>
<path d="M0 0 C3.66771845 1.83385923 5.46834996 3.25062829 8.25 6.125 C8.95640625 6.84945313 9.6628125 7.57390625 10.390625 8.3203125 C11.18726563 9.15175781 11.18726563 9.15175781 12 10 C10.44332539 13.72428457 8.15977084 16.08682396 5.31771851 18.92279053 C4.83823403 19.40398385 4.35874955 19.88517718 3.86473525 20.38095212 C2.25877535 21.99020313 0.64577761 23.59220706 -0.96728516 25.19433594 C-2.12070444 26.34719102 -3.2736834 27.50048678 -4.42625427 28.65419006 C-7.55587072 31.7843807 -10.69161855 34.90836342 -13.82849169 38.03127956 C-17.10589679 41.29618839 -20.37764497 44.56675586 -23.6499939 47.83673096 C-29.84726414 54.0277832 -36.04961534 60.21371921 -42.2538017 66.39783978 C-49.31690432 73.43859339 -56.37433373 80.48502188 -63.43128896 87.53193617 C-77.94788258 102.02762053 -92.47159681 116.51615252 -107 131 C-108.06816445 130.13192399 -109.12918085 129.25505217 -110.1875 128.375 C-110.77917969 127.88773437 -111.37085938 127.40046875 -111.98046875 126.8984375 C-114.54686166 124.48592888 -116.74508093 121.70590288 -119 119 C-79.73 79.73 -40.46 40.46 0 0 Z " fill="#053458" transform="translate(397,263)"/>
<path d="M0 0 C1.10816566 0.9264712 2.21297428 1.85695849 3.31640625 2.7890625 C3.93201416 3.30678223 4.54762207 3.82450195 5.18188477 4.35791016 C7.76746936 6.69316489 9.84955686 9.26307237 12 12 C7.0231333 17.00237575 2.04222846 22.00070483 -2.94140625 26.99633789 C-4.63372911 28.69366667 -6.3251505 30.39189477 -8.015625 32.09106445 C-10.45592369 34.54359341 -12.89952506 36.99279096 -15.34375 39.44140625 C-16.08991577 40.19273331 -16.83608154 40.94406036 -17.6048584 41.71815491 C-18.32500122 42.43837326 -19.04514404 43.15859161 -19.78710938 43.90063477 C-20.40888062 44.52462662 -21.03065186 45.14861847 -21.67126465 45.79151917 C-23.66294469 47.68035002 -25.69368196 49.47735636 -27.77050781 51.27050781 C-31.98442684 54.93773387 -35.94635273 58.81206211 -39.88476562 62.77124023 C-40.6272052 63.51353378 -41.36964478 64.25582733 -42.13458252 65.02061462 C-44.56085277 67.44757535 -46.98357275 69.87804682 -49.40625 72.30859375 C-51.09853577 74.00274677 -52.79104407 75.69667753 -54.48376465 77.39039612 C-58.91807358 81.82850599 -63.34936997 86.26961179 -67.7800293 90.71136475 C-72.30985792 95.25145978 -76.8425519 99.78869216 -81.375 104.32617188 C-90.25279427 113.2146607 -99.12750395 122.10622264 -108 131 C-109.11677492 130.05052441 -110.23244654 129.09975103 -111.34765625 128.1484375 C-111.96906494 127.61911621 -112.59047363 127.08979492 -113.23071289 126.54443359 C-115.2481965 124.78334607 -117.14412108 122.93011408 -119 121 C-117.44332539 117.27571543 -115.15977084 114.91317604 -112.31771851 112.07720947 C-111.83823403 111.59601615 -111.35874955 111.11482282 -110.86473525 110.61904788 C-109.25877535 109.00979687 -107.64577761 107.40779294 -106.03271484 105.80566406 C-104.87929556 104.65280898 -103.7263166 103.49951322 -102.57374573 102.34580994 C-99.44412928 99.2156193 -96.30838145 96.09163658 -93.17150831 92.96872044 C-89.89410321 89.70381161 -86.62235503 86.43324414 -83.3500061 83.16326904 C-77.15273586 76.9722168 -70.95038466 70.78628079 -64.7461983 64.60216022 C-57.68309568 57.56140661 -50.62566627 50.51497812 -43.56871104 43.46806383 C-29.05211742 28.97237947 -14.52840319 14.48384748 0 0 Z " fill="#F9B300" transform="translate(409,274)"/>
<path d="M0 0 C0.79130787 6.78941002 1.49409208 13.17156105 -1.77822876 19.36633301 C-4.40343816 22.62992404 -7.16804632 25.57736545 -10.14453125 28.515625 C-11.21790814 29.62584013 -12.28911124 30.73816051 -13.35827637 31.85243225 C-16.19878671 34.78187334 -19.09577842 37.64757577 -22.01761246 40.49570084 C-23.81577303 42.25319901 -25.59877666 44.02497775 -27.37948608 45.80014038 C-44.29211112 62.58429671 -61.88209175 78.71471847 -87 80 C-93.47271247 79.43501221 -93.47271247 79.43501221 -96.5 76.9375 C-98.93409327 72.17073402 -97.53752147 68.19895145 -96.3125 63.1875 C-95.7107287 60.71154585 -95.7107287 60.71154585 -98 58 C-97.66404704 52.3304654 -96.34442408 47.34240553 -94.49609375 42 C-94.2533522 41.2788501 -94.01061066 40.5577002 -93.76051331 39.81469727 C-92.99326549 37.54065704 -92.21559502 35.27034857 -91.4375 33 C-90.91141233 31.44685051 -90.38601522 29.89346694 -89.86132812 28.33984375 C-88.5821785 24.55714528 -87.29367718 20.77775346 -86 17 C-81.24914133 20.96372525 -76.76386888 25.09794782 -72.41015625 29.4921875 C-71.82076767 30.08299103 -71.23137909 30.67379456 -70.62413025 31.28250122 C-68.76786273 33.14430404 -66.91512915 35.00957745 -65.0625 36.875 C-63.79385328 38.14867011 -62.5249751 39.42210971 -61.25585938 40.6953125 C-58.16789446 43.79422043 -55.08309071 46.89624301 -52 50 C-45.87885347 44.9414 -40.31377447 39.42649715 -34.7265625 33.7890625 C-33.75276672 32.8108535 -32.77867089 31.83294311 -31.80429077 30.85531616 C-28.74167919 27.78137089 -25.6830695 24.70346303 -22.625 21.625 C-19.05858655 18.03498079 -15.49054906 14.4466063 -11.91831589 10.86237717 C-10.49090687 9.42847215 -9.06653102 7.99159956 -7.64224243 6.55459595 C-6.78399872 5.69304901 -5.925755 4.83150208 -5.04150391 3.94384766 C-4.28318268 3.18028961 -3.52486145 2.41673157 -2.74356079 1.6300354 C-1 0 -1 0 0 0 Z " fill="#D2D1CE" transform="translate(352,354)"/>
<path d="M0 0 C52.8 0 105.6 0 160 0 C160 11.55555556 160 11.55555556 157 15 C153.76312873 16.07895709 151.41494758 16.13115532 148.00953674 16.14044189 C146.75748444 16.14615204 145.50543213 16.15186218 144.21543884 16.15774536 C142.825348 16.15899069 141.43525704 16.16011579 140.04516602 16.16113281 C138.58325068 16.16576138 137.12133655 16.17078609 135.65942383 16.17617798 C131.68631957 16.18929822 127.71323221 16.19574592 123.74010968 16.20018864 C121.25873859 16.20311929 118.77737211 16.20722404 116.29600334 16.21169281 C108.53471223 16.22536526 100.77343168 16.23503378 93.01212937 16.2388947 C84.04804277 16.24337835 75.08410843 16.26094145 66.12006813 16.2898953 C59.19345999 16.31149315 52.26689476 16.32159793 45.34025329 16.32293582 C41.20191499 16.32398499 37.06371986 16.32991678 32.92541695 16.34775543 C29.03399018 16.36420396 25.14281474 16.36640744 21.25136566 16.35761642 C19.82269812 16.35684438 18.39401723 16.36121081 16.96538353 16.37107468 C15.01611213 16.38374476 13.06674028 16.37614369 11.1174469 16.36749268 C10.02625329 16.36895924 8.93505968 16.3704258 7.8107996 16.3719368 C4.62326833 15.95014928 3.2686868 15.2475848 1 13 C0 10 0 10 0 0 Z " fill="#F0EFEF" transform="translate(144,80)"/>
<path d="M0 0 C0.67417969 0.30808594 1.34835938 0.61617188 2.04296875 0.93359375 C2.79443359 3.17626953 2.79443359 3.17626953 3.04296875 5.93359375 C1.42822266 8.00732422 1.42822266 8.00732422 -0.98046875 10.05078125 C-1.83705078 10.81559814 -2.69363281 11.58041504 -3.57617188 12.3684082 C-4.48560547 13.17366943 -5.39503906 13.97893066 -6.33203125 14.80859375 C-13.45402277 21.01257025 -13.45402277 21.01257025 -17.33984375 29.3046875 C-17.53884337 33.17600857 -17.53884337 33.17600857 -17.11328125 36.734375 C-16.92066116 40.67827143 -17.88753512 42.61299314 -19.95703125 45.93359375 C-23.19951264 49.48850173 -26.60516535 51.76972035 -31.49731445 52.1105957 C-34.7548148 52.17690278 -38.01146835 52.21846744 -41.26953125 52.24609375 C-42.39810547 52.27509766 -43.52667969 52.30410156 -44.68945312 52.33398438 C-51.09652876 52.3830085 -55.132756 52.3251267 -59.95703125 47.93359375 C-65.71913831 41.54855619 -65.1997521 35.85038099 -65.26953125 27.62109375 C-65.29853516 26.49251953 -65.32753906 25.36394531 -65.35742188 24.20117188 C-65.40643021 17.79616007 -65.35251711 13.75341613 -60.95703125 8.93359375 C-54.55940227 3.29758727 -49.99635564 3.72080733 -41.70703125 3.68359375 C-40.57394531 3.66296875 -39.44085938 3.64234375 -38.2734375 3.62109375 C-27.46859738 3.57042627 -27.46859738 3.57042627 -22.95703125 6.93359375 C-20.81642258 9.16603143 -18.84747897 11.48673766 -16.95703125 13.93359375 C-16.55911377 13.50425537 -16.16119629 13.07491699 -15.7512207 12.63256836 C-13.93985122 10.69649457 -12.1053738 8.78396466 -10.26953125 6.87109375 C-9.33077148 5.85692383 -9.33077148 5.85692383 -8.37304688 4.82226562 C-3.61885853 -0.08126895 -3.61885853 -0.08126895 0 0 Z " fill="#C80E53" transform="translate(192.95703125,316.06640625)"/>
<path d="M0 0 C0.67417969 0.30808594 1.34835938 0.61617187 2.04296875 0.93359375 C2.79443359 3.17626953 2.79443359 3.17626953 3.04296875 5.93359375 C1.42822266 8.00732422 1.42822266 8.00732422 -0.98046875 10.05078125 C-1.83705078 10.81559814 -2.69363281 11.58041504 -3.57617188 12.3684082 C-4.48560547 13.17366943 -5.39503906 13.97893066 -6.33203125 14.80859375 C-13.45402277 21.01257025 -13.45402277 21.01257025 -17.33984375 29.3046875 C-17.53884337 33.17600857 -17.53884337 33.17600857 -17.11328125 36.734375 C-16.92066116 40.67827143 -17.88753512 42.61299314 -19.95703125 45.93359375 C-23.19951264 49.48850173 -26.60516535 51.76972035 -31.49731445 52.1105957 C-34.7548148 52.17690278 -38.01146835 52.21846744 -41.26953125 52.24609375 C-42.39810547 52.27509766 -43.52667969 52.30410156 -44.68945312 52.33398438 C-51.09652876 52.3830085 -55.132756 52.3251267 -59.95703125 47.93359375 C-65.71913831 41.54855619 -65.1997521 35.85038099 -65.26953125 27.62109375 C-65.29853516 26.49251953 -65.32753906 25.36394531 -65.35742188 24.20117188 C-65.40643021 17.79616007 -65.35251711 13.75341613 -60.95703125 8.93359375 C-54.55940227 3.29758727 -49.99635564 3.72080733 -41.70703125 3.68359375 C-40.57394531 3.66296875 -39.44085938 3.64234375 -38.2734375 3.62109375 C-27.46859738 3.57042627 -27.46859738 3.57042627 -22.95703125 6.93359375 C-20.81642258 9.16603143 -18.84747897 11.48673766 -16.95703125 13.93359375 C-16.55911377 13.50425537 -16.16119629 13.07491699 -15.7512207 12.63256836 C-13.93985122 10.69649457 -12.1053738 8.78396466 -10.26953125 6.87109375 C-9.33077148 5.85692383 -9.33077148 5.85692383 -8.37304688 4.82226562 C-3.61885853 -0.08126895 -3.61885853 -0.08126895 0 0 Z " fill="#C80E53" transform="translate(192.95703125,236.06640625)"/>
<path d="M0 0 C0.67417969 0.30808594 1.34835938 0.61617187 2.04296875 0.93359375 C2.79443359 3.17626953 2.79443359 3.17626953 3.04296875 5.93359375 C1.42822266 8.00732422 1.42822266 8.00732422 -0.98046875 10.05078125 C-1.83705078 10.81559814 -2.69363281 11.58041504 -3.57617188 12.3684082 C-4.48560547 13.17366943 -5.39503906 13.97893066 -6.33203125 14.80859375 C-13.45402277 21.01257025 -13.45402277 21.01257025 -17.33984375 29.3046875 C-17.53884337 33.17600857 -17.53884337 33.17600857 -17.11328125 36.734375 C-16.92066116 40.67827143 -17.88753512 42.61299314 -19.95703125 45.93359375 C-23.19951264 49.48850173 -26.60516535 51.76972035 -31.49731445 52.1105957 C-34.7548148 52.17690278 -38.01146835 52.21846744 -41.26953125 52.24609375 C-42.39810547 52.27509766 -43.52667969 52.30410156 -44.68945312 52.33398438 C-51.09652876 52.3830085 -55.132756 52.3251267 -59.95703125 47.93359375 C-65.71913831 41.54855619 -65.1997521 35.85038099 -65.26953125 27.62109375 C-65.29853516 26.49251953 -65.32753906 25.36394531 -65.35742188 24.20117188 C-65.40643021 17.79616007 -65.35251711 13.75341613 -60.95703125 8.93359375 C-54.55940227 3.29758727 -49.99635564 3.72080733 -41.70703125 3.68359375 C-40.57394531 3.66296875 -39.44085938 3.64234375 -38.2734375 3.62109375 C-27.46859738 3.57042627 -27.46859738 3.57042627 -22.95703125 6.93359375 C-20.81642258 9.16603143 -18.84747897 11.48673766 -16.95703125 13.93359375 C-16.55911377 13.50425537 -16.16119629 13.07491699 -15.7512207 12.63256836 C-13.93985122 10.69649457 -12.1053738 8.78396466 -10.26953125 6.87109375 C-9.33077148 5.85692383 -9.33077148 5.85692383 -8.37304688 4.82226562 C-3.61885853 -0.08126895 -3.61885853 -0.08126895 0 0 Z " fill="#C80E53" transform="translate(192.95703125,156.06640625)"/>
<path d="M0 0 C3.24240347 1.45507152 5.48163464 3.52075488 8 6 C8.85980469 6.80824219 9.71960938 7.61648437 10.60546875 8.44921875 C20.56073836 18.05971712 20.56073836 18.05971712 21.43359375 23.90234375 C21.43552734 25.40474609 21.43552734 25.40474609 21.4375 26.9375 C21.45683594 27.93652344 21.47617187 28.93554688 21.49609375 29.96484375 C20.45343981 36.3439155 15.71862627 40.55884655 11.25 44.875 C10.74339844 45.37257813 10.23679687 45.87015625 9.71484375 46.3828125 C8.48114693 47.59323202 7.24122216 48.79729853 6 50 C1.16701194 45.97251947 -3.38110004 41.75620587 -7.80859375 37.2890625 C-8.42017838 36.67606293 -9.031763 36.06306335 -9.66188049 35.43148804 C-11.58947559 33.49835436 -13.51353928 31.56175013 -15.4375 29.625 C-16.75432404 28.30315301 -18.07137926 26.98153628 -19.38867188 25.66015625 C-22.59512373 22.44275701 -25.79841629 19.22224319 -29 16 C-28.04167941 14.8775831 -27.08273826 13.75569601 -26.12353516 12.6340332 C-25.58959137 12.00922562 -25.05564758 11.38441803 -24.50552368 10.74067688 C-22.85193453 8.82880765 -21.15186972 6.98542268 -19.375 5.1875 C-18.82585937 4.62417969 -18.27671875 4.06085938 -17.7109375 3.48046875 C-12.51063536 -1.01933607 -6.58414741 -0.93573154 0 0 Z " fill="#C80A50" transform="translate(427,224)"/>
<path d="M0 0 C4.83298806 4.02748053 9.38110004 8.24379413 13.80859375 12.7109375 C14.72597069 13.63043686 14.72597069 13.63043686 15.66188049 14.56851196 C17.58947559 16.50164564 19.51353928 18.43824987 21.4375 20.375 C22.75432404 21.69684699 24.07137926 23.01846372 25.38867188 24.33984375 C28.59512373 27.55724299 31.79841629 30.77775681 35 34 C31.8289086 35.62718715 28.70563795 36.83306686 25.3125 37.9375 C24.24773437 38.28683594 23.18296875 38.63617188 22.0859375 38.99609375 C21.06757813 39.32738281 20.04921875 39.65867187 19 40 C17.4785334 40.49806969 15.95762924 40.99786345 14.4375 41.5 C13.37208984 41.84804688 13.37208984 41.84804688 12.28515625 42.203125 C10.58944432 42.79445019 8.91187115 43.43833843 7.24609375 44.109375 C-2.40173675 47.9422546 -2.40173675 47.9422546 -8 46 C-10.5 43.9375 -10.5 43.9375 -12 41 C-11.61559195 35.33045091 -10.34637967 30.34805796 -8.49609375 25 C-8.2533522 24.2788501 -8.01061066 23.5577002 -7.76051331 22.81469727 C-6.99326549 20.54065704 -6.21559502 18.27034857 -5.4375 16 C-4.91141233 14.44685051 -4.38601522 12.89346694 -3.86132812 11.33984375 C-2.5821785 7.55714528 -1.29367718 3.77775346 0 0 Z " fill="#EEC69F" transform="translate(266,371)"/>
<path d="M0 0 C0.92833649 0.00045319 1.85667297 0.00090637 2.81314087 0.00137329 C3.78543137 -0.00198532 4.75772186 -0.00534393 5.75947571 -0.00880432 C8.99099994 -0.01834566 12.22247254 -0.02025901 15.45401001 -0.02133179 C17.68981447 -0.0245421 19.92561872 -0.027906 22.16142273 -0.03141785 C26.85490405 -0.03741706 31.54836692 -0.03925693 36.24185181 -0.03866577 C42.26930734 -0.03856409 48.29664522 -0.05221879 54.32407284 -0.06943798 C58.943604 -0.08053187 63.56310649 -0.08258579 68.18264961 -0.08205605 C70.40549691 -0.08324002 72.62834486 -0.08768496 74.85117912 -0.09538841 C77.95447003 -0.10513596 81.05750246 -0.10233108 84.16079712 -0.09628296 C85.08710938 -0.10190247 86.01342163 -0.10752197 86.96780396 -0.11331177 C87.81052353 -0.10911728 88.6532431 -0.10492279 89.52149963 -0.1006012 C90.25579162 -0.10114596 90.9900836 -0.10169073 91.74662685 -0.10225201 C93.55166626 0.14663696 93.55166626 0.14663696 95.55166626 2.14663696 C94.9961107 6.70219252 94.9961107 6.70219252 93.55166626 8.14663696 C90.45732388 8.25264098 87.38517795 8.29341151 84.29019165 8.29190063 C82.83175591 8.29693855 82.83175591 8.29693855 81.34385681 8.30207825 C78.11233258 8.31161959 74.88085997 8.31353294 71.64932251 8.31460571 C69.41351805 8.31781603 67.1777138 8.32117992 64.94190979 8.32469177 C60.24842847 8.33069098 55.55496559 8.33253086 50.86148071 8.3319397 C44.83402518 8.33183802 38.8066873 8.34549272 32.77925968 8.36271191 C28.15972852 8.37380579 23.54022603 8.37585971 18.92068291 8.37532997 C16.69783561 8.37651394 14.47498766 8.38095889 12.2521534 8.38866234 C9.14886249 8.39840988 6.04583006 8.395605 2.9425354 8.38955688 C1.55306702 8.39798615 1.55306702 8.39798615 0.13552856 8.40658569 C-0.70719101 8.4023912 -1.54991058 8.39819672 -2.41816711 8.39387512 C-3.1524591 8.39441989 -3.88675108 8.39496466 -4.64329433 8.39552593 C-6.44833374 8.14663696 -6.44833374 8.14663696 -8.44833374 6.14663696 C-7.6647312 -0.27890388 -6.25719649 0.03177384 0 0 Z " fill="#C80A50" transform="translate(212.44833374023438,271.8533630371094)"/>
<path d="M0 0 C0.92833649 0.00045319 1.85667297 0.00090637 2.81314087 0.00137329 C3.78543137 -0.00198532 4.75772186 -0.00534393 5.75947571 -0.00880432 C8.99099994 -0.01834566 12.22247254 -0.02025901 15.45401001 -0.02133179 C17.68981447 -0.0245421 19.92561872 -0.027906 22.16142273 -0.03141785 C26.85490405 -0.03741706 31.54836692 -0.03925693 36.24185181 -0.03866577 C42.26930734 -0.03856409 48.29664522 -0.05221879 54.32407284 -0.06943798 C58.943604 -0.08053187 63.56310649 -0.08258579 68.18264961 -0.08205605 C70.40549691 -0.08324002 72.62834486 -0.08768496 74.85117912 -0.09538841 C77.95447003 -0.10513596 81.05750246 -0.10233108 84.16079712 -0.09628296 C85.08710938 -0.10190247 86.01342163 -0.10752197 86.96780396 -0.11331177 C87.81052353 -0.10911728 88.6532431 -0.10492279 89.52149963 -0.1006012 C90.25579162 -0.10114596 90.9900836 -0.10169073 91.74662685 -0.10225201 C93.55166626 0.14663696 93.55166626 0.14663696 95.55166626 2.14663696 C94.9961107 6.70219252 94.9961107 6.70219252 93.55166626 8.14663696 C90.45732388 8.25264098 87.38517795 8.29341151 84.29019165 8.29190063 C82.83175591 8.29693855 82.83175591 8.29693855 81.34385681 8.30207825 C78.11233258 8.31161959 74.88085997 8.31353294 71.64932251 8.31460571 C69.41351805 8.31781603 67.1777138 8.32117992 64.94190979 8.32469177 C60.24842847 8.33069098 55.55496559 8.33253086 50.86148071 8.3319397 C44.83402518 8.33183802 38.8066873 8.34549272 32.77925968 8.36271191 C28.15972852 8.37380579 23.54022603 8.37585971 18.92068291 8.37532997 C16.69783561 8.37651394 14.47498766 8.38095889 12.2521534 8.38866234 C9.14886249 8.39840988 6.04583006 8.395605 2.9425354 8.38955688 C1.55306702 8.39798615 1.55306702 8.39798615 0.13552856 8.40658569 C-0.70719101 8.4023912 -1.54991058 8.39819672 -2.41816711 8.39387512 C-3.1524591 8.39441989 -3.88675108 8.39496466 -4.64329433 8.39552593 C-6.44833374 8.14663696 -6.44833374 8.14663696 -8.44833374 6.14663696 C-7.6647312 -0.27890388 -6.25719649 0.03177384 0 0 Z " fill="#C80A50" transform="translate(212.44833374023438,191.85336303710938)"/>
<path d="M0 0 C2.95265112 1.32994383 5.02350216 2.77779316 7.29980469 5.07275391 C7.92014587 5.69324615 8.54048706 6.3137384 9.17962646 6.95303345 C9.83706848 7.62079803 10.4945105 8.28856262 11.171875 8.9765625 C11.8542926 9.66181 12.53671021 10.3470575 13.23980713 11.05307007 C15.41461598 13.23905845 17.58236072 15.43190429 19.75 17.625 C21.2247999 19.10983255 22.70005506 20.59421306 24.17578125 22.078125 C27.78915448 25.7135291 31.39620853 29.35509824 35 33 C33.39464713 36.41059403 31.59481099 38.61792484 28.875 41.25 C28.15054688 41.95640625 27.42609375 42.6628125 26.6796875 43.390625 C26.12539063 43.92171875 25.57109375 44.4528125 25 45 C22.04734888 43.67005617 19.97649784 42.22220684 17.70019531 39.92724609 C17.07985413 39.30675385 16.45951294 38.6862616 15.82037354 38.04696655 C15.16293152 37.37920197 14.5054895 36.71143738 13.828125 36.0234375 C12.8044986 34.99556625 12.8044986 34.99556625 11.76019287 33.94692993 C9.58538402 31.76094155 7.41763928 29.56809571 5.25 27.375 C3.7752001 25.89016745 2.29994494 24.40578694 0.82421875 22.921875 C-2.78915448 19.2864709 -6.39620853 15.64490176 -10 12 C-8.39464713 8.58940597 -6.59481099 6.38207516 -3.875 3.75 C-3.15054687 3.04359375 -2.42609375 2.3371875 -1.6796875 1.609375 C-1.12539063 1.07828125 -0.57109375 0.5471875 0 0 Z " fill="#F1C69F" transform="translate(397,240)"/>
<path d="M0 0 C0.93714844 -0.00257813 1.87429687 -0.00515625 2.83984375 -0.0078125 C7.80437377 0.06260637 11.52949427 0.18039685 15.5 3.5 C16.99986273 6.49972546 17.0048832 8.15514879 16.5 11.5 C14.40517892 14.11328929 12.03294512 16.315981 9.5 18.5 C6.25240554 17.10005228 4.38379333 15.4554506 2.0625 12.8125 C0.32871565 10.92585856 0.32871565 10.92585856 -1.5 9.5 C-4.36920862 9.36789525 -4.36920862 9.36789525 -6.5 10.5 C-6.14622892 15.78691229 -3.33152681 18.33611042 0.25 21.875 C0.7759375 22.43316406 1.301875 22.99132812 1.84375 23.56640625 C3.58186945 25.37941623 3.58186945 25.37941623 6.5 27.5 C10.93132267 27.46811998 13.25171002 25.37705684 16.5 22.5 C16.13629267 28.92549608 16.13629267 28.92549608 13.609375 31.20703125 C9.05576979 33.10055302 4.81903003 32.93514205 -0.0625 32.875 C-1.00802734 32.88660156 -1.95355469 32.89820313 -2.92773438 32.91015625 C-3.83974609 32.90628906 -4.75175781 32.90242188 -5.69140625 32.8984375 C-6.51842041 32.89505371 -7.34543457 32.89166992 -8.19750977 32.88818359 C-11.04516747 32.40808861 -12.41160548 31.47062029 -14.5 29.5 C-15.97372241 25.07883277 -15.80613795 20.75753781 -15.875 16.125 C-15.91238281 15.17882812 -15.94976562 14.23265625 -15.98828125 13.2578125 C-16.04407721 8.84373228 -15.92625362 6.21517866 -13.6328125 2.3671875 C-9.08461237 -0.34358515 -5.19647716 -0.1572524 0 0 Z " fill="#ECEBEC" transform="translate(151.5,327.5)"/>
<path d="M0 0 C0.93714844 -0.00257813 1.87429687 -0.00515625 2.83984375 -0.0078125 C7.80437377 0.06260637 11.52949427 0.18039685 15.5 3.5 C16.99986273 6.49972546 17.0048832 8.15514879 16.5 11.5 C14.40517892 14.11328929 12.03294512 16.315981 9.5 18.5 C6.25240554 17.10005228 4.38379333 15.4554506 2.0625 12.8125 C0.32871565 10.92585856 0.32871565 10.92585856 -1.5 9.5 C-4.36920862 9.36789525 -4.36920862 9.36789525 -6.5 10.5 C-6.14622892 15.78691229 -3.33152681 18.33611042 0.25 21.875 C0.7759375 22.43316406 1.301875 22.99132812 1.84375 23.56640625 C3.58186945 25.37941623 3.58186945 25.37941623 6.5 27.5 C10.93132267 27.46811998 13.25171002 25.37705684 16.5 22.5 C16.13629267 28.92549608 16.13629267 28.92549608 13.609375 31.20703125 C9.05576979 33.10055302 4.81903003 32.93514205 -0.0625 32.875 C-1.00802734 32.88660156 -1.95355469 32.89820313 -2.92773438 32.91015625 C-3.83974609 32.90628906 -4.75175781 32.90242188 -5.69140625 32.8984375 C-6.51842041 32.89505371 -7.34543457 32.89166992 -8.19750977 32.88818359 C-11.04516747 32.40808861 -12.41160548 31.47062029 -14.5 29.5 C-15.97372241 25.07883277 -15.80613795 20.75753781 -15.875 16.125 C-15.91238281 15.17882812 -15.94976562 14.23265625 -15.98828125 13.2578125 C-16.04407721 8.84373228 -15.92625362 6.21517866 -13.6328125 2.3671875 C-9.08461237 -0.34358515 -5.19647716 -0.1572524 0 0 Z " fill="#ECEBEC" transform="translate(151.5,247.5)"/>
<path d="M0 0 C0.93714844 -0.00257813 1.87429687 -0.00515625 2.83984375 -0.0078125 C7.80437377 0.06260637 11.52949427 0.18039685 15.5 3.5 C16.99986273 6.49972546 17.0048832 8.15514879 16.5 11.5 C14.40517892 14.11328929 12.03294512 16.315981 9.5 18.5 C6.25240554 17.10005228 4.38379333 15.4554506 2.0625 12.8125 C0.32871565 10.92585856 0.32871565 10.92585856 -1.5 9.5 C-4.36920862 9.36789525 -4.36920862 9.36789525 -6.5 10.5 C-6.14622892 15.78691229 -3.33152681 18.33611042 0.25 21.875 C0.7759375 22.43316406 1.301875 22.99132812 1.84375 23.56640625 C3.58186945 25.37941623 3.58186945 25.37941623 6.5 27.5 C10.93132267 27.46811998 13.25171002 25.37705684 16.5 22.5 C16.13629267 28.92549608 16.13629267 28.92549608 13.609375 31.20703125 C9.05576979 33.10055302 4.81903003 32.93514205 -0.0625 32.875 C-1.00802734 32.88660156 -1.95355469 32.89820313 -2.92773438 32.91015625 C-3.83974609 32.90628906 -4.75175781 32.90242188 -5.69140625 32.8984375 C-6.51842041 32.89505371 -7.34543457 32.89166992 -8.19750977 32.88818359 C-11.04516747 32.40808861 -12.41160548 31.47062029 -14.5 29.5 C-15.97372241 25.07883277 -15.80613795 20.75753781 -15.875 16.125 C-15.91238281 15.17882812 -15.94976562 14.23265625 -15.98828125 13.2578125 C-16.04407721 8.84373228 -15.92625362 6.21517866 -13.6328125 2.3671875 C-9.08461237 -0.34358515 -5.19647716 -0.1572524 0 0 Z " fill="#ECEBEC" transform="translate(151.5,167.5)"/>
<path d="M0 0 C1.16808701 0.00067978 1.16808701 0.00067978 2.35977173 0.00137329 C3.1760051 -0.00198532 3.99223846 -0.00534393 4.83320618 -0.00880432 C7.545283 -0.01834336 10.25729829 -0.0202589 12.96939087 -0.02133179 C14.84647142 -0.0245423 16.72355171 -0.02790621 18.60063171 -0.03141785 C22.54085877 -0.0374165 26.48106386 -0.03925699 30.42129517 -0.03866577 C35.48021345 -0.0385641 40.53899152 -0.05221786 45.59787655 -0.06943798 C49.47623852 -0.08053465 53.35456635 -0.0825857 57.23294258 -0.08205605 C59.09853155 -0.08323963 60.96412131 -0.08768246 62.82969475 -0.09538841 C65.43487352 -0.10514148 68.03974468 -0.10232896 70.64492798 -0.09628296 C71.42162842 -0.10190247 72.19832886 -0.10752197 72.99856567 -0.11331177 C78.33873161 -0.08167855 78.33873161 -0.08167855 80.56704712 2.14663696 C80.01149156 6.70219252 80.01149156 6.70219252 78.56704712 8.14663696 C75.96092631 8.25237024 73.38116942 8.29341771 70.77432251 8.29190063 C69.95808914 8.29525925 69.14185577 8.29861786 68.30088806 8.30207825 C65.58881124 8.31161729 62.87679595 8.31353283 60.16470337 8.31460571 C58.28762282 8.31781623 56.41054253 8.32118014 54.53346252 8.32469177 C50.59323547 8.33069043 46.65303037 8.33253092 42.71279907 8.3319397 C37.65388079 8.33183803 32.59510272 8.34549178 27.53621769 8.36271191 C23.65785572 8.37380858 19.77952789 8.37585963 15.90115166 8.37532997 C14.03556268 8.37651356 12.16997292 8.38095639 10.30439949 8.38866234 C7.69922072 8.3984154 5.09434956 8.39560288 2.48916626 8.38955688 C1.71246582 8.39517639 0.93576538 8.4007959 0.13552856 8.40658569 C-5.20463737 8.37495247 -5.20463737 8.37495247 -7.43295288 6.14663696 C-6.71426087 0.25336245 -5.80456626 0.03510183 0 0 Z " fill="#C80B50" transform="translate(211.43295288085938,255.85336303710938)"/>
<path d="M0 0 C1.16808701 0.00067978 1.16808701 0.00067978 2.35977173 0.00137329 C3.1760051 -0.00198532 3.99223846 -0.00534393 4.83320618 -0.00880432 C7.545283 -0.01834336 10.25729829 -0.0202589 12.96939087 -0.02133179 C14.84647142 -0.0245423 16.72355171 -0.02790621 18.60063171 -0.03141785 C22.54085877 -0.0374165 26.48106386 -0.03925699 30.42129517 -0.03866577 C35.48021345 -0.0385641 40.53899152 -0.05221786 45.59787655 -0.06943798 C49.47623852 -0.08053465 53.35456635 -0.0825857 57.23294258 -0.08205605 C59.09853155 -0.08323963 60.96412131 -0.08768246 62.82969475 -0.09538841 C65.43487352 -0.10514148 68.03974468 -0.10232896 70.64492798 -0.09628296 C71.42162842 -0.10190247 72.19832886 -0.10752197 72.99856567 -0.11331177 C78.33873161 -0.08167855 78.33873161 -0.08167855 80.56704712 2.14663696 C80.01149156 6.70219252 80.01149156 6.70219252 78.56704712 8.14663696 C75.96092631 8.25237024 73.38116942 8.29341771 70.77432251 8.29190063 C69.95808914 8.29525925 69.14185577 8.29861786 68.30088806 8.30207825 C65.58881124 8.31161729 62.87679595 8.31353283 60.16470337 8.31460571 C58.28762282 8.31781623 56.41054253 8.32118014 54.53346252 8.32469177 C50.59323547 8.33069043 46.65303037 8.33253092 42.71279907 8.3319397 C37.65388079 8.33183803 32.59510272 8.34549178 27.53621769 8.36271191 C23.65785572 8.37380858 19.77952789 8.37585963 15.90115166 8.37532997 C14.03556268 8.37651356 12.16997292 8.38095639 10.30439949 8.38866234 C7.69922072 8.3984154 5.09434956 8.39560288 2.48916626 8.38955688 C1.71246582 8.39517639 0.93576538 8.4007959 0.13552856 8.40658569 C-5.20463737 8.37495247 -5.20463737 8.37495247 -7.43295288 6.14663696 C-6.71426087 0.25336245 -5.80456626 0.03510183 0 0 Z " fill="#C80B50" transform="translate(211.43295288085938,175.85336303710938)"/>
<path d="M0 0 C1.04401978 0.42502808 1.04401978 0.42502808 2.10913086 0.85864258 C2.79214478 3.12710571 2.79214478 3.12710571 3.10913086 5.85864258 C1.97225952 7.75741577 1.97225952 7.75741577 0.1809082 9.56323242 C-0.81605576 10.58856583 -0.81605576 10.58856583 -1.8331604 11.63461304 C-2.56634491 12.35565216 -3.29952942 13.07669128 -4.05493164 13.81958008 C-4.79915375 14.56954254 -5.54337585 15.319505 -6.31015015 16.0921936 C-7.88843765 17.67456604 -9.47433546 19.24937852 -11.06713867 20.81713867 C-13.50661589 23.2245111 -15.91247949 25.66216172 -18.31665039 28.10473633 C-19.85249065 29.63661179 -21.39019108 31.16662499 -22.92993164 32.69458008 C-23.65097076 33.42776459 -24.37200989 34.1609491 -25.11489868 34.91635132 C-25.79845428 35.58099396 -26.48200989 36.2456366 -27.1862793 36.93041992 C-27.78219879 37.52156586 -28.37811829 38.11271179 -28.99209595 38.72177124 C-30.89086914 39.85864258 -30.89086914 39.85864258 -33.51135254 39.61837769 C-37.51455093 38.34023138 -39.86457508 35.5420306 -42.76586914 32.60864258 C-43.37172852 32.03500977 -43.97758789 31.46137695 -44.60180664 30.87036133 C-46.21509187 29.26074265 -47.64379074 27.76675329 -48.89086914 25.85864258 C-48.77368164 22.93676758 -48.77368164 22.93676758 -47.89086914 20.85864258 C-45.69165039 20.08129883 -45.69165039 20.08129883 -42.89086914 19.85864258 C-40.43383789 21.72973633 -40.43383789 21.72973633 -38.07836914 24.29614258 C-37.28817383 25.14047852 -36.49797852 25.98481445 -35.68383789 26.85473633 C-35.0921582 27.51602539 -34.50047852 28.17731445 -33.89086914 28.85864258 C-29.60365033 27.22464598 -26.85643737 23.97089263 -23.76977539 20.72192383 C-22.57570256 19.49283607 -21.38102262 18.26433789 -20.18579102 17.03637695 C-18.31171146 15.10023037 -16.44267404 13.1599167 -14.58398438 11.20898438 C-12.78429478 9.32480454 -10.96637805 7.45989256 -9.14477539 5.59692383 C-8.59253799 5.00744461 -8.0403006 4.41796539 -7.47132874 3.81062317 C-3.53916871 -0.17305791 -3.53916871 -0.17305791 0 0 Z " fill="#04173E" transform="translate(192.890869140625,316.141357421875)"/>
<path d="M0 0 C1.04401978 0.42502808 1.04401978 0.42502808 2.10913086 0.85864258 C2.79214478 3.12710571 2.79214478 3.12710571 3.10913086 5.85864258 C1.97225952 7.75741577 1.97225952 7.75741577 0.1809082 9.56323242 C-0.81605576 10.58856583 -0.81605576 10.58856583 -1.8331604 11.63461304 C-2.56634491 12.35565216 -3.29952942 13.07669128 -4.05493164 13.81958008 C-4.79915375 14.56954254 -5.54337585 15.319505 -6.31015015 16.0921936 C-7.88843765 17.67456604 -9.47433546 19.24937852 -11.06713867 20.81713867 C-13.50661589 23.2245111 -15.91247949 25.66216172 -18.31665039 28.10473633 C-19.85249065 29.63661179 -21.39019108 31.16662499 -22.92993164 32.69458008 C-23.65097076 33.42776459 -24.37200989 34.1609491 -25.11489868 34.91635132 C-25.79845428 35.58099396 -26.48200989 36.2456366 -27.1862793 36.93041992 C-27.78219879 37.52156586 -28.37811829 38.11271179 -28.99209595 38.72177124 C-30.89086914 39.85864258 -30.89086914 39.85864258 -33.51135254 39.61837769 C-37.51455093 38.34023138 -39.86457508 35.5420306 -42.76586914 32.60864258 C-43.37172852 32.03500977 -43.97758789 31.46137695 -44.60180664 30.87036133 C-46.21509187 29.26074265 -47.64379074 27.76675329 -48.89086914 25.85864258 C-48.77368164 22.93676758 -48.77368164 22.93676758 -47.89086914 20.85864258 C-45.69165039 20.08129883 -45.69165039 20.08129883 -42.89086914 19.85864258 C-40.43383789 21.72973633 -40.43383789 21.72973633 -38.07836914 24.29614258 C-37.28817383 25.14047852 -36.49797852 25.98481445 -35.68383789 26.85473633 C-35.0921582 27.51602539 -34.50047852 28.17731445 -33.89086914 28.85864258 C-29.60365033 27.22464598 -26.85643737 23.97089263 -23.76977539 20.72192383 C-22.57570256 19.49283607 -21.38102262 18.26433789 -20.18579102 17.03637695 C-18.31171146 15.10023037 -16.44267404 13.1599167 -14.58398438 11.20898438 C-12.78429478 9.32480454 -10.96637805 7.45989256 -9.14477539 5.59692383 C-8.59253799 5.00744461 -8.0403006 4.41796539 -7.47132874 3.81062317 C-3.53916871 -0.17305791 -3.53916871 -0.17305791 0 0 Z " fill="#04173E" transform="translate(192.890869140625,236.141357421875)"/>
<path d="M0 0 C1.04401978 0.42502808 1.04401978 0.42502808 2.10913086 0.85864258 C2.79214478 3.12710571 2.79214478 3.12710571 3.10913086 5.85864258 C1.97225952 7.75741577 1.97225952 7.75741577 0.1809082 9.56323242 C-0.81605576 10.58856583 -0.81605576 10.58856583 -1.8331604 11.63461304 C-2.56634491 12.35565216 -3.29952942 13.07669128 -4.05493164 13.81958008 C-4.79915375 14.56954254 -5.54337585 15.319505 -6.31015015 16.0921936 C-7.88843765 17.67456604 -9.47433546 19.24937852 -11.06713867 20.81713867 C-13.50661589 23.2245111 -15.91247949 25.66216172 -18.31665039 28.10473633 C-19.85249065 29.63661179 -21.39019108 31.16662499 -22.92993164 32.69458008 C-23.65097076 33.42776459 -24.37200989 34.1609491 -25.11489868 34.91635132 C-25.79845428 35.58099396 -26.48200989 36.2456366 -27.1862793 36.93041992 C-27.78219879 37.52156586 -28.37811829 38.11271179 -28.99209595 38.72177124 C-30.89086914 39.85864258 -30.89086914 39.85864258 -33.51135254 39.61837769 C-37.51455093 38.34023138 -39.86457508 35.5420306 -42.76586914 32.60864258 C-43.37172852 32.03500977 -43.97758789 31.46137695 -44.60180664 30.87036133 C-46.21509187 29.26074265 -47.64379074 27.76675329 -48.89086914 25.85864258 C-48.77368164 22.93676758 -48.77368164 22.93676758 -47.89086914 20.85864258 C-45.69165039 20.08129883 -45.69165039 20.08129883 -42.89086914 19.85864258 C-40.43383789 21.72973633 -40.43383789 21.72973633 -38.07836914 24.29614258 C-37.28817383 25.14047852 -36.49797852 25.98481445 -35.68383789 26.85473633 C-35.0921582 27.51602539 -34.50047852 28.17731445 -33.89086914 28.85864258 C-29.60365033 27.22464598 -26.85643737 23.97089263 -23.76977539 20.72192383 C-22.57570256 19.49283607 -21.38102262 18.26433789 -20.18579102 17.03637695 C-18.31171146 15.10023037 -16.44267404 13.1599167 -14.58398438 11.20898438 C-12.78429478 9.32480454 -10.96637805 7.45989256 -9.14477539 5.59692383 C-8.59253799 5.00744461 -8.0403006 4.41796539 -7.47132874 3.81062317 C-3.53916871 -0.17305791 -3.53916871 -0.17305791 0 0 Z " fill="#04173E" transform="translate(192.890869140625,156.141357421875)"/>
<path d="M0 0 C1.27479721 -0.00637985 2.54959442 -0.0127597 3.86302185 -0.01933289 C5.26553306 -0.02086144 6.66804478 -0.02197547 8.07055664 -0.02270508 C9.49923232 -0.02591598 10.92790767 -0.02927992 12.35658264 -0.03279114 C15.35524254 -0.03878872 18.35387359 -0.0406304 21.35253906 -0.04003906 C25.20079238 -0.03993742 29.04886129 -0.0535893 32.89707088 -0.07081127 C35.84897211 -0.08191339 38.80082852 -0.08395882 41.75274849 -0.08342934 C43.17176512 -0.08461217 44.59078281 -0.08905087 46.00977898 -0.0967617 C47.99217238 -0.10652487 49.97461955 -0.10242885 51.95703125 -0.09765625 C53.6512748 -0.09979378 53.6512748 -0.09979378 55.37974548 -0.10197449 C58.04321289 0.14526367 58.04321289 0.14526367 60.04321289 2.14526367 C59.48765734 6.70081923 59.48765734 6.70081923 58.04321289 8.14526367 C56.05978089 8.24982187 54.07260048 8.28381972 52.08642578 8.29052734 C50.81162857 8.2969072 49.53683136 8.30328705 48.22340393 8.30986023 C46.82089272 8.31138879 45.418381 8.31250281 44.01586914 8.31323242 C42.58719346 8.31644332 41.15851811 8.31980726 39.72984314 8.32331848 C36.73118324 8.32931606 33.73255219 8.33115775 30.73388672 8.33056641 C26.8856334 8.33046476 23.03756449 8.34411664 19.1893549 8.36133862 C16.23745367 8.37244073 13.28559727 8.37448617 10.33367729 8.37395668 C8.91466066 8.37513952 7.49564298 8.37957821 6.0766468 8.38728905 C4.0942534 8.39705222 2.11180623 8.3929562 0.12939453 8.38818359 C-1.56484901 8.39032112 -1.56484901 8.39032112 -3.2933197 8.39250183 C-5.95678711 8.14526367 -5.95678711 8.14526367 -7.95678711 6.14526367 C-7.19963907 -0.06335026 -6.00446479 0.02027802 0 0 Z " fill="#C80B50" transform="translate(211.956787109375,335.854736328125)"/>
<path d="M0 0 C5.28 0 10.56 0 16 0 C16 10.56 16 21.12 16 32 C10.72 32 5.44 32 0 32 C0 21.44 0 10.88 0 0 Z " fill="#00325A" transform="translate(320,48)"/>
<path d="M0 0 C5.28 0 10.56 0 16 0 C16 10.56 16 21.12 16 32 C10.72 32 5.44 32 0 32 C0 21.44 0 10.88 0 0 Z " fill="#00325A" transform="translate(144,48)"/>
<path d="M0 0 C3.56764285 1.51376081 5.83706287 3.60513129 8.546875 6.3515625 C9.39121094 7.20234375 10.23554688 8.053125 11.10546875 8.9296875 C12.41451172 10.26386719 12.41451172 10.26386719 13.75 11.625 C14.63816406 12.5221875 15.52632813 13.419375 16.44140625 14.34375 C18.63216969 16.55807004 20.81812763 18.77692435 23 21 C21.28687214 24.42625571 17.31523287 24.96500922 13.875 26.1875 C13.12734375 26.47302734 12.3796875 26.75855469 11.609375 27.05273438 C6.70950627 28.80695567 3.1856797 29.34540305 -2 28 C-4.5 25.9375 -4.5 25.9375 -6 23 C-6.14597804 15.11718596 -2.5946367 7.35306637 0 0 Z " fill="#07193F" transform="translate(260,389)"/>
<path d="M0 0 C1.43169777 -0.00956978 1.43169777 -0.00956978 2.89231873 -0.01933289 C4.45007774 -0.02100212 4.45007774 -0.02100212 6.03930664 -0.02270508 C7.0985585 -0.02603348 8.15781036 -0.02936188 9.24916077 -0.03279114 C11.49455327 -0.03786502 13.73995334 -0.04019932 15.98535156 -0.04003906 C19.43119667 -0.04222474 22.87672141 -0.06037354 26.32250977 -0.0793457 C28.49894096 -0.08227961 30.67537368 -0.08426443 32.85180664 -0.08520508 C34.40652931 -0.09598335 34.40652931 -0.09598335 35.99266052 -0.10697937 C36.95027786 -0.10390274 37.9078952 -0.10082611 38.89453125 -0.09765625 C39.73978867 -0.09908127 40.58504608 -0.10050629 41.45591736 -0.10197449 C43.51196289 0.14526367 43.51196289 0.14526367 45.51196289 2.14526367 C44.95640734 6.70081923 44.95640734 6.70081923 43.51196289 8.14526367 C42.01874992 8.24876561 40.52070632 8.28377106 39.02392578 8.29052734 C38.0694606 8.2969072 37.11499542 8.30328705 36.13160706 8.30986023 C34.57384804 8.31152946 34.57384804 8.31152946 32.98461914 8.31323242 C31.92536728 8.31656082 30.86611542 8.31988922 29.77476501 8.32331848 C27.52937252 8.32839236 25.28397244 8.33072667 23.03857422 8.33056641 C19.59272911 8.33275209 16.14720437 8.35090088 12.70141602 8.36987305 C10.52498483 8.37280696 8.34855211 8.37479177 6.17211914 8.37573242 C5.13563736 8.38291794 4.09915558 8.39010345 3.03126526 8.39750671 C2.07364792 8.39443008 1.11603058 8.39135345 0.12939453 8.38818359 C-0.71586288 8.38960861 -1.5611203 8.39103363 -2.43199158 8.39250183 C-4.48803711 8.14526367 -4.48803711 8.14526367 -6.48803711 6.14526367 C-5.83571169 0.79619522 -5.26225354 0.02375317 0 0 Z " fill="#C80B51" transform="translate(210.488037109375,351.854736328125)"/>
<path d="M0 0 C5.28 0 10.56 0 16 0 C16 5.28 16 10.56 16 16 C5.64166667 16.36994048 5.64166667 16.36994048 2.703125 14.67578125 C0.43727153 12.44630617 0.02588387 10.65745031 -0.09765625 7.51953125 C-0.06510417 5.01302083 -0.03255208 2.50651042 0 0 Z " fill="#D2D1D0" transform="translate(144,80)"/>
</svg>
